<?xml version="1.0" encoding="UTF-8" standalone="no"?>
<!DOCTYPE svg PUBLIC "-//W3C//DTD SVG 1.1//EN" "http://www.w3.org/Graphics/SVG/1.1/DTD/svg11.dtd">
<svg width="100%" height="100%" viewBox="0 0 1000 500" version="1.1" xmlns="http://www.w3.org/2000/svg" xmlns:xlink="http://www.w3.org/1999/xlink" xml:space="preserve" xmlns:serif="http://www.serif.com/" style="fill-rule:evenodd;clip-rule:evenodd;stroke-linejoin:round;stroke-miterlimit:2;">
    <g transform="matrix(2.02423,0,0,2.02423,43.5496,114.516)">
        <path d="M251.216,61.501C251.216,61.501 260.929,55.011 263.718,52.878C266.507,50.744 273.681,45.836 284.531,48.103C284.531,48.103 281.406,49.983 280.041,51.275C278.677,52.567 264.773,64.726 251.216,61.501Z" style="fill:white;"/>
        <path d="M382.946,99.654C383.73,99.654 384.406,99.766 384.974,99.99C385.542,100.214 386.01,100.522 386.378,100.914C386.746,101.306 387.022,101.77 387.206,102.306C387.39,102.842 387.482,103.43 387.482,104.07C387.482,105.174 387.314,106.242 386.978,107.274C386.642,108.306 386.126,109.222 385.43,110.022C384.734,110.822 383.854,111.462 382.79,111.942C381.726,112.422 380.466,112.662 379.01,112.662C378.834,112.662 378.642,112.654 378.434,112.638C378.226,112.622 378.042,112.598 377.882,112.566L376.85,116.886L374.618,116.886L378.554,100.494C379.226,100.222 379.958,100.014 380.75,99.87C381.542,99.726 382.274,99.654 382.946,99.654ZM142.154,112.806C141.322,112.806 140.602,112.682 139.994,112.434C139.386,112.186 138.882,111.85 138.482,111.426C138.082,111.002 137.786,110.498 137.594,109.914C137.402,109.33 137.306,108.702 137.306,108.03C137.306,107.678 137.338,107.286 137.402,106.854C137.466,106.422 137.538,106.022 137.618,105.654L139.97,95.814L142.298,95.814L139.898,105.798C139.818,106.102 139.754,106.438 139.706,106.806C139.658,107.174 139.634,107.518 139.634,107.838C139.634,108.254 139.682,108.638 139.778,108.99C139.874,109.342 140.038,109.65 140.27,109.914C140.502,110.178 140.802,110.386 141.17,110.538C141.538,110.69 141.986,110.766 142.514,110.766C143.874,110.766 144.93,110.386 145.682,109.626C146.434,108.866 147.002,107.654 147.386,105.99L149.834,95.814L152.162,95.814L149.666,106.254C149.442,107.166 149.182,108.022 148.886,108.822C148.59,109.622 148.17,110.314 147.626,110.898C147.082,111.482 146.374,111.946 145.502,112.29C144.63,112.634 143.514,112.806 142.154,112.806ZM433.394,109.974C433.394,110.342 433.426,110.714 433.49,111.09C433.554,111.466 433.666,111.87 433.826,112.302L431.858,112.59C431.682,112.238 431.546,111.814 431.45,111.318C431.098,111.638 430.626,111.958 430.034,112.278C429.442,112.598 428.714,112.758 427.85,112.758C427.146,112.758 426.538,112.65 426.026,112.434C425.514,112.218 425.09,111.91 424.754,111.51C424.418,111.11 424.17,110.634 424.01,110.082C423.85,109.53 423.77,108.926 423.77,108.27C423.77,107.198 423.95,106.15 424.31,105.126C424.67,104.102 425.206,103.19 425.918,102.39C426.63,101.59 427.522,100.946 428.594,100.458C429.666,99.97 430.914,99.726 432.338,99.726C432.514,99.726 432.69,99.734 432.866,99.75C433.042,99.766 433.226,99.79 433.418,99.822L434.762,94.206L437.09,93.822L433.706,107.862C433.626,108.23 433.554,108.582 433.49,108.918C433.426,109.254 433.394,109.606 433.394,109.974ZM205.082,112.758C204.378,112.758 203.79,112.654 203.318,112.446C202.846,112.238 202.462,111.958 202.166,111.606C201.87,111.254 201.658,110.838 201.53,110.358C201.402,109.878 201.338,109.366 201.338,108.822C201.338,108.406 201.374,107.994 201.446,107.586C201.518,107.178 201.602,106.766 201.698,106.35L203.234,99.966L205.466,99.966L204.05,105.87C203.97,106.238 203.866,106.67 203.738,107.166C203.61,107.662 203.546,108.158 203.546,108.654C203.546,108.942 203.574,109.218 203.63,109.482C203.686,109.746 203.79,109.978 203.942,110.178C204.094,110.378 204.298,110.538 204.554,110.658C204.81,110.778 205.13,110.838 205.514,110.838C206.202,110.838 206.806,110.69 207.326,110.394C207.846,110.098 208.282,109.75 208.634,109.35C208.65,109.094 208.674,108.83 208.706,108.558C208.738,108.286 208.794,107.99 208.874,107.67L210.722,99.966L212.954,99.966L211.058,107.862C210.978,108.23 210.91,108.586 210.854,108.93C210.798,109.274 210.77,109.63 210.77,109.998C210.77,110.366 210.802,110.734 210.866,111.102C210.93,111.47 211.042,111.87 211.202,112.302L209.234,112.59C209.154,112.414 209.074,112.214 208.994,111.99C208.914,111.766 208.85,111.526 208.802,111.27C208.626,111.43 208.418,111.598 208.178,111.774C207.938,111.95 207.662,112.11 207.35,112.254C207.038,112.398 206.694,112.518 206.318,112.614C205.942,112.71 205.53,112.758 205.082,112.758ZM319.25,112.59C319.17,112.414 319.09,112.218 319.01,112.002C318.93,111.786 318.866,111.558 318.818,111.318C318.466,111.638 317.994,111.958 317.402,112.278C316.81,112.598 316.082,112.758 315.218,112.758C314.514,112.758 313.91,112.646 313.406,112.422C312.902,112.198 312.49,111.886 312.17,111.486C311.85,111.086 311.614,110.614 311.462,110.07C311.31,109.526 311.234,108.926 311.234,108.27C311.234,107.198 311.414,106.15 311.774,105.126C312.134,104.102 312.674,103.19 313.394,102.39C314.114,101.59 315.018,100.942 316.106,100.446C317.194,99.95 318.466,99.702 319.922,99.702C320.354,99.702 320.858,99.75 321.434,99.846C322.01,99.942 322.506,100.102 322.922,100.326L321.074,107.862C320.994,108.23 320.926,108.582 320.87,108.918C320.814,109.254 320.786,109.606 320.786,109.974C320.786,110.342 320.818,110.714 320.882,111.09C320.946,111.466 321.058,111.87 321.218,112.302L319.25,112.59ZM246.242,112.59C246.162,112.414 246.082,112.218 246.002,112.002C245.922,111.786 245.858,111.558 245.81,111.318C245.458,111.638 244.986,111.958 244.394,112.278C243.802,112.598 243.074,112.758 242.21,112.758C241.506,112.758 240.902,112.646 240.398,112.422C239.894,112.198 239.482,111.886 239.162,111.486C238.842,111.086 238.606,110.614 238.454,110.07C238.302,109.526 238.226,108.926 238.226,108.27C238.226,107.198 238.406,106.15 238.766,105.126C239.126,104.102 239.666,103.19 240.386,102.39C241.106,101.59 242.01,100.942 243.098,100.446C244.186,99.95 245.458,99.702 246.914,99.702C247.346,99.702 247.85,99.75 248.426,99.846C249.002,99.942 249.498,100.102 249.914,100.326L248.066,107.862C247.986,108.23 247.918,108.582 247.862,108.918C247.806,109.254 247.778,109.606 247.778,109.974C247.778,110.342 247.81,110.714 247.874,111.09C247.938,111.466 248.05,111.87 248.21,112.302L246.242,112.59ZM173.714,112.59C173.634,112.414 173.554,112.218 173.474,112.002C173.394,111.786 173.33,111.558 173.282,111.318C172.93,111.638 172.458,111.958 171.866,112.278C171.274,112.598 170.546,112.758 169.682,112.758C168.978,112.758 168.374,112.646 167.87,112.422C167.366,112.198 166.954,111.886 166.634,111.486C166.314,111.086 166.078,110.614 165.926,110.07C165.774,109.526 165.698,108.926 165.698,108.27C165.698,107.198 165.878,106.15 166.238,105.126C166.598,104.102 167.138,103.19 167.858,102.39C168.578,101.59 169.482,100.942 170.57,100.446C171.658,99.95 172.93,99.702 174.386,99.702C174.818,99.702 175.322,99.75 175.898,99.846C176.474,99.942 176.97,100.102 177.386,100.326L175.538,107.862C175.458,108.23 175.39,108.582 175.334,108.918C175.278,109.254 175.25,109.606 175.25,109.974C175.25,110.342 175.282,110.714 175.346,111.09C175.41,111.466 175.522,111.87 175.682,112.302L173.714,112.59ZM273.362,112.758C272.05,112.758 271.022,112.37 270.278,111.594C269.534,110.818 269.162,109.75 269.162,108.39C269.162,107.462 269.294,106.486 269.558,105.462C269.822,104.438 270.242,103.494 270.818,102.63C271.394,101.766 272.138,101.054 273.05,100.494C273.962,99.934 275.066,99.654 276.362,99.654C277.674,99.654 278.702,100.042 279.446,100.818C280.19,101.594 280.562,102.662 280.562,104.022C280.562,104.95 280.43,105.926 280.166,106.95C279.902,107.974 279.482,108.918 278.906,109.782C278.33,110.646 277.586,111.358 276.674,111.918C275.762,112.478 274.658,112.758 273.362,112.758ZM339.458,109.974C339.458,110.342 339.49,110.714 339.554,111.09C339.618,111.466 339.73,111.87 339.89,112.302L337.922,112.59C337.746,112.238 337.61,111.814 337.514,111.318C337.162,111.638 336.69,111.958 336.098,112.278C335.506,112.598 334.778,112.758 333.914,112.758C333.21,112.758 332.602,112.65 332.09,112.434C331.578,112.218 331.154,111.91 330.818,111.51C330.482,111.11 330.234,110.634 330.074,110.082C329.914,109.53 329.834,108.926 329.834,108.27C329.834,107.198 330.014,106.15 330.374,105.126C330.734,104.102 331.27,103.19 331.982,102.39C332.694,101.59 333.586,100.946 334.658,100.458C335.73,99.97 336.978,99.726 338.402,99.726C338.578,99.726 338.754,99.734 338.93,99.75C339.106,99.766 339.29,99.79 339.482,99.822L340.826,94.206L343.154,93.822L339.77,107.862C339.69,108.23 339.618,108.582 339.554,108.918C339.49,109.254 339.458,109.606 339.458,109.974ZM219.074,112.758C218.258,112.758 217.554,112.642 216.962,112.41C216.37,112.178 215.874,111.858 215.474,111.45C215.074,111.042 214.778,110.566 214.586,110.022C214.394,109.478 214.298,108.902 214.298,108.294C214.298,107.174 214.466,106.094 214.802,105.054C215.138,104.014 215.618,103.094 216.242,102.294C216.866,101.494 217.626,100.858 218.522,100.386C219.418,99.914 220.434,99.678 221.57,99.678C222.226,99.678 222.79,99.762 223.262,99.93C223.734,100.098 224.118,100.326 224.414,100.614C224.71,100.902 224.93,101.234 225.074,101.61C225.218,101.986 225.29,102.374 225.29,102.774C225.29,103.526 225.154,104.162 224.882,104.682C224.61,105.202 224.25,105.638 223.802,105.99C223.354,106.342 222.83,106.614 222.23,106.806C221.63,106.998 221.006,107.15 220.358,107.262C219.71,107.374 219.054,107.45 218.39,107.49C217.726,107.53 217.098,107.566 216.506,107.598C216.49,107.726 216.482,107.83 216.482,107.91L216.482,108.102C216.482,108.47 216.526,108.818 216.614,109.146C216.702,109.474 216.866,109.762 217.106,110.01C217.346,110.258 217.678,110.454 218.102,110.598C218.526,110.742 219.082,110.814 219.77,110.814C220.074,110.814 220.39,110.786 220.718,110.73C221.046,110.674 221.358,110.602 221.654,110.514C221.95,110.426 222.214,110.338 222.446,110.25C222.678,110.162 222.842,110.078 222.938,109.998L223.13,111.894C222.81,112.07 222.294,112.258 221.582,112.458C220.87,112.658 220.034,112.758 219.074,112.758ZM441.722,112.758C440.906,112.758 440.202,112.642 439.61,112.41C439.018,112.178 438.522,111.858 438.122,111.45C437.722,111.042 437.426,110.566 437.234,110.022C437.042,109.478 436.946,108.902 436.946,108.294C436.946,107.174 437.114,106.094 437.45,105.054C437.786,104.014 438.266,103.094 438.89,102.294C439.514,101.494 440.274,100.858 441.17,100.386C442.066,99.914 443.082,99.678 444.218,99.678C444.874,99.678 445.438,99.762 445.91,99.93C446.382,100.098 446.766,100.326 447.062,100.614C447.358,100.902 447.578,101.234 447.722,101.61C447.866,101.986 447.938,102.374 447.938,102.774C447.938,103.526 447.802,104.162 447.53,104.682C447.258,105.202 446.898,105.638 446.45,105.99C446.002,106.342 445.478,106.614 444.878,106.806C444.278,106.998 443.654,107.15 443.006,107.262C442.358,107.374 441.702,107.45 441.038,107.49C440.374,107.53 439.746,107.566 439.154,107.598C439.138,107.726 439.13,107.83 439.13,107.91L439.13,108.102C439.13,108.47 439.174,108.818 439.262,109.146C439.35,109.474 439.514,109.762 439.754,110.01C439.994,110.258 440.326,110.454 440.75,110.598C441.174,110.742 441.73,110.814 442.418,110.814C442.722,110.814 443.038,110.786 443.366,110.73C443.694,110.674 444.006,110.602 444.302,110.514C444.598,110.426 444.862,110.338 445.094,110.25C445.326,110.162 445.49,110.078 445.586,109.998L445.778,111.894C445.458,112.07 444.942,112.258 444.23,112.458C443.518,112.658 442.682,112.758 441.722,112.758ZM402.938,112.758C402.122,112.758 401.418,112.642 400.826,112.41C400.234,112.178 399.738,111.858 399.338,111.45C398.938,111.042 398.642,110.566 398.45,110.022C398.258,109.478 398.162,108.902 398.162,108.294C398.162,107.174 398.33,106.094 398.666,105.054C399.002,104.014 399.482,103.094 400.106,102.294C400.73,101.494 401.49,100.858 402.386,100.386C403.282,99.914 404.298,99.678 405.434,99.678C406.09,99.678 406.654,99.762 407.126,99.93C407.598,100.098 407.982,100.326 408.278,100.614C408.574,100.902 408.794,101.234 408.938,101.61C409.082,101.986 409.154,102.374 409.154,102.774C409.154,103.526 409.018,104.162 408.746,104.682C408.474,105.202 408.114,105.638 407.666,105.99C407.218,106.342 406.694,106.614 406.094,106.806C405.494,106.998 404.87,107.15 404.222,107.262C403.574,107.374 402.918,107.45 402.254,107.49C401.59,107.53 400.962,107.566 400.37,107.598C400.354,107.726 400.346,107.83 400.346,107.91L400.346,108.102C400.346,108.47 400.39,108.818 400.478,109.146C400.566,109.474 400.73,109.762 400.97,110.01C401.21,110.258 401.542,110.454 401.966,110.598C402.39,110.742 402.946,110.814 403.634,110.814C403.938,110.814 404.254,110.786 404.582,110.73C404.91,110.674 405.222,110.602 405.518,110.514C405.814,110.426 406.078,110.338 406.31,110.25C406.542,110.162 406.706,110.078 406.802,109.998L406.994,111.894C406.674,112.07 406.158,112.258 405.446,112.458C404.734,112.658 403.898,112.758 402.938,112.758ZM347.786,112.758C346.97,112.758 346.266,112.642 345.674,112.41C345.082,112.178 344.586,111.858 344.186,111.45C343.786,111.042 343.49,110.566 343.298,110.022C343.106,109.478 343.01,108.902 343.01,108.294C343.01,107.174 343.178,106.094 343.514,105.054C343.85,104.014 344.33,103.094 344.954,102.294C345.578,101.494 346.338,100.858 347.234,100.386C348.13,99.914 349.146,99.678 350.282,99.678C350.938,99.678 351.502,99.762 351.974,99.93C352.446,100.098 352.83,100.326 353.126,100.614C353.422,100.902 353.642,101.234 353.786,101.61C353.93,101.986 354.002,102.374 354.002,102.774C354.002,103.526 353.866,104.162 353.594,104.682C353.322,105.202 352.962,105.638 352.514,105.99C352.066,106.342 351.542,106.614 350.942,106.806C350.342,106.998 349.718,107.15 349.07,107.262C348.422,107.374 347.766,107.45 347.102,107.49C346.438,107.53 345.81,107.566 345.218,107.598C345.202,107.726 345.194,107.83 345.194,107.91L345.194,108.102C345.194,108.47 345.238,108.818 345.326,109.146C345.414,109.474 345.578,109.762 345.818,110.01C346.058,110.258 346.39,110.454 346.814,110.598C347.238,110.742 347.794,110.814 348.482,110.814C348.786,110.814 349.102,110.786 349.43,110.73C349.758,110.674 350.07,110.602 350.366,110.514C350.662,110.426 350.926,110.338 351.158,110.25C351.39,110.162 351.554,110.078 351.65,109.998L351.842,111.894C351.522,112.07 351.006,112.258 350.294,112.458C349.582,112.658 348.746,112.758 347.786,112.758ZM305.282,99.702C305.986,99.702 306.582,99.81 307.07,100.026C307.558,100.242 307.95,100.534 308.246,100.902C308.542,101.27 308.754,101.698 308.882,102.186C309.01,102.674 309.074,103.19 309.074,103.734C309.074,104.086 309.046,104.466 308.99,104.874C308.934,105.282 308.858,105.678 308.762,106.062L307.226,112.446L304.994,112.446L306.41,106.542C306.49,106.174 306.582,105.762 306.686,105.306C306.79,104.85 306.842,104.398 306.842,103.95C306.842,103.646 306.806,103.35 306.734,103.062C306.662,102.774 306.542,102.526 306.374,102.318C306.206,102.11 305.97,101.942 305.666,101.814C305.362,101.686 304.986,101.622 304.538,101.622C304.026,101.622 303.53,101.722 303.05,101.922C302.57,102.122 302.17,102.326 301.85,102.534C301.882,102.758 301.91,102.978 301.934,103.194C301.958,103.41 301.97,103.622 301.97,103.83C301.97,104.198 301.942,104.57 301.886,104.946C301.83,105.322 301.762,105.694 301.682,106.062L300.146,112.446L297.914,112.446L299.33,106.542C299.41,106.174 299.498,105.758 299.594,105.294C299.69,104.83 299.738,104.366 299.738,103.902C299.738,103.598 299.706,103.306 299.642,103.026C299.578,102.746 299.47,102.502 299.318,102.294C299.166,102.086 298.962,101.922 298.706,101.802C298.45,101.682 298.122,101.622 297.722,101.622C297.322,101.622 296.934,101.646 296.558,101.694C296.182,101.742 295.866,101.806 295.61,101.886L293.066,112.446L290.834,112.446L293.714,100.446C294.434,100.222 295.222,100.042 296.078,99.906C296.934,99.77 297.698,99.702 298.37,99.702C299.042,99.702 299.61,99.818 300.074,100.05C300.538,100.282 300.906,100.59 301.178,100.974C301.338,100.862 301.558,100.734 301.838,100.59C302.118,100.446 302.438,100.31 302.798,100.182C303.158,100.054 303.55,99.942 303.974,99.846C304.398,99.75 304.834,99.702 305.282,99.702ZM194.618,112.446C194.33,111.518 193.986,110.462 193.586,109.278C193.186,108.094 192.75,106.894 192.278,105.678C191.806,104.462 191.322,103.282 190.826,102.138C190.33,100.994 189.842,99.998 189.362,99.15L186.17,112.446L183.89,112.446L187.874,95.814L189.866,95.814C190.378,96.678 190.902,97.658 191.438,98.754C191.974,99.85 192.486,100.974 192.974,102.126C193.462,103.278 193.914,104.406 194.33,105.51C194.746,106.614 195.09,107.606 195.362,108.486L198.338,95.814L200.618,95.814L196.658,112.446L194.618,112.446ZM154.178,112.446L151.946,112.446L154.826,100.446C155.562,100.222 156.358,100.042 157.214,99.906C158.07,99.77 158.834,99.702 159.506,99.702C160.226,99.702 160.846,99.802 161.366,100.002C161.886,100.202 162.306,100.474 162.626,100.818C162.946,101.162 163.182,101.578 163.334,102.066C163.486,102.554 163.562,103.086 163.562,103.662C163.562,104.03 163.53,104.418 163.466,104.826C163.402,105.234 163.322,105.646 163.226,106.062L161.69,112.446L159.458,112.446L160.874,106.542C160.986,106.094 161.094,105.638 161.198,105.174C161.302,104.71 161.354,104.27 161.354,103.854C161.354,103.214 161.178,102.682 160.826,102.258C160.474,101.834 159.818,101.622 158.858,101.622C158.458,101.622 158.066,101.646 157.682,101.694C157.298,101.742 156.978,101.806 156.722,101.886L154.178,112.446ZM412.25,112.446L410.018,112.446L412.898,100.446C413.634,100.222 414.43,100.042 415.286,99.906C416.142,99.77 416.906,99.702 417.578,99.702C418.298,99.702 418.918,99.802 419.438,100.002C419.958,100.202 420.378,100.474 420.698,100.818C421.018,101.162 421.254,101.578 421.406,102.066C421.558,102.554 421.634,103.086 421.634,103.662C421.634,104.03 421.602,104.418 421.538,104.826C421.474,105.234 421.394,105.646 421.298,106.062L419.762,112.446L417.53,112.446L418.946,106.542C419.058,106.094 419.166,105.638 419.27,105.174C419.374,104.71 419.426,104.27 419.426,103.854C419.426,103.214 419.25,102.682 418.898,102.258C418.546,101.834 417.89,101.622 416.93,101.622C416.53,101.622 416.138,101.646 415.754,101.694C415.37,101.742 415.05,101.806 414.794,101.886L412.25,112.446ZM228.962,112.446C228.77,111.63 228.586,110.734 228.41,109.758C228.234,108.782 228.074,107.762 227.93,106.698C227.786,105.634 227.666,104.534 227.57,103.398C227.474,102.262 227.41,101.118 227.378,99.966L229.634,99.966C229.65,100.75 229.686,101.586 229.742,102.474C229.798,103.362 229.866,104.25 229.946,105.138C230.026,106.026 230.122,106.882 230.234,107.706C230.346,108.53 230.466,109.278 230.594,109.95C231.074,109.342 231.574,108.626 232.094,107.802C232.614,106.978 233.114,106.114 233.594,105.21C234.074,104.306 234.514,103.398 234.914,102.486C235.314,101.574 235.634,100.734 235.874,99.966L238.13,99.966C237.778,101.022 237.33,102.118 236.786,103.254C236.242,104.39 235.654,105.506 235.022,106.602C234.39,107.698 233.726,108.75 233.03,109.758C232.334,110.766 231.658,111.662 231.002,112.446L228.962,112.446ZM256.418,112.446L260.402,95.814L270.122,95.814L269.666,97.758L262.25,97.758L261.026,102.846L267.602,102.846L267.146,104.742L260.594,104.742L258.746,112.446L256.418,112.446ZM455.954,99.702C456.146,99.702 456.362,99.71 456.602,99.726C456.842,99.742 457.078,99.77 457.31,99.81C457.542,99.85 457.754,99.89 457.946,99.93C458.138,99.97 458.282,100.014 458.378,100.062L457.73,102.006C457.41,101.878 457.042,101.782 456.626,101.718C456.21,101.654 455.81,101.622 455.426,101.622C455.09,101.622 454.758,101.646 454.43,101.694C454.102,101.742 453.818,101.806 453.578,101.886L451.034,112.446L448.802,112.446L451.682,100.446C452.322,100.222 453.01,100.042 453.746,99.906C454.482,99.77 455.218,99.702 455.954,99.702ZM395.93,99.702C396.122,99.702 396.338,99.71 396.578,99.726C396.818,99.742 397.054,99.77 397.286,99.81C397.518,99.85 397.73,99.89 397.922,99.93C398.114,99.97 398.258,100.014 398.354,100.062L397.706,102.006C397.386,101.878 397.018,101.782 396.602,101.718C396.186,101.654 395.786,101.622 395.402,101.622C395.066,101.622 394.734,101.646 394.406,101.694C394.078,101.742 393.794,101.806 393.554,101.886L391.01,112.446L388.778,112.446L391.658,100.446C392.298,100.222 392.986,100.042 393.722,99.906C394.458,99.77 395.194,99.702 395.93,99.702ZM363.722,108.174L361.37,112.446L358.826,112.446C360.618,109.214 362.366,106.238 364.07,103.518C365.774,100.798 367.458,98.23 369.122,95.814L371.402,95.814C371.642,97.014 371.862,98.226 372.062,99.45C372.262,100.674 372.458,101.958 372.65,103.302C372.842,104.646 373.026,106.07 373.202,107.574C373.378,109.078 373.562,110.702 373.754,112.446L371.402,112.446C371.322,111.726 371.25,111.002 371.186,110.274C371.122,109.546 371.05,108.846 370.97,108.174L363.722,108.174ZM289.058,99.702C289.25,99.702 289.466,99.71 289.706,99.726C289.946,99.742 290.182,99.77 290.414,99.81C290.646,99.85 290.858,99.89 291.05,99.93C291.242,99.97 291.386,100.014 291.482,100.062L290.834,102.006C290.514,101.878 290.146,101.782 289.73,101.718C289.314,101.654 288.914,101.622 288.53,101.622C288.194,101.622 287.862,101.646 287.534,101.694C287.206,101.742 286.922,101.806 286.682,101.886L284.138,112.446L281.906,112.446L284.786,100.446C285.426,100.222 286.114,100.042 286.85,99.906C287.586,99.77 288.322,99.702 289.058,99.702ZM428.306,110.862C428.978,110.862 429.55,110.722 430.022,110.442C430.494,110.162 430.906,109.838 431.258,109.47C431.274,109.214 431.302,108.938 431.342,108.642C431.382,108.346 431.442,108.022 431.522,107.67L432.962,101.67C432.818,101.638 432.658,101.618 432.482,101.61C432.306,101.602 432.138,101.598 431.978,101.598C431.066,101.598 430.242,101.774 429.506,102.126C428.77,102.478 428.142,102.95 427.622,103.542C427.102,104.134 426.702,104.818 426.422,105.594C426.142,106.37 426.002,107.182 426.002,108.03C426.002,108.398 426.042,108.75 426.122,109.086C426.202,109.422 426.33,109.722 426.506,109.986C426.682,110.25 426.918,110.462 427.214,110.622C427.51,110.782 427.874,110.862 428.306,110.862ZM273.746,110.862C274.466,110.862 275.11,110.654 275.678,110.238C276.246,109.822 276.726,109.29 277.118,108.642C277.51,107.994 277.81,107.278 278.018,106.494C278.226,105.71 278.33,104.95 278.33,104.214C278.33,103.398 278.154,102.75 277.802,102.27C277.45,101.79 276.842,101.55 275.978,101.55C275.258,101.55 274.614,101.758 274.046,102.174C273.478,102.59 272.998,103.122 272.606,103.77C272.214,104.418 271.914,105.134 271.706,105.918C271.498,106.702 271.394,107.462 271.394,108.198C271.394,109.014 271.57,109.662 271.922,110.142C272.274,110.622 272.882,110.862 273.746,110.862ZM170.138,110.862C170.81,110.862 171.386,110.718 171.866,110.43C172.346,110.142 172.762,109.806 173.114,109.422C173.13,109.15 173.158,108.866 173.198,108.57C173.238,108.274 173.29,107.974 173.354,107.67L174.794,101.718C174.714,101.686 174.582,101.662 174.398,101.646C174.214,101.63 174.05,101.622 173.906,101.622C172.994,101.622 172.17,101.798 171.434,102.15C170.698,102.502 170.07,102.97 169.55,103.554C169.03,104.138 168.63,104.818 168.35,105.594C168.07,106.37 167.93,107.182 167.93,108.03C167.93,108.366 167.962,108.706 168.026,109.05C168.09,109.394 168.206,109.698 168.374,109.962C168.542,110.226 168.766,110.442 169.046,110.61C169.326,110.778 169.69,110.862 170.138,110.862ZM242.666,110.862C243.338,110.862 243.914,110.718 244.394,110.43C244.874,110.142 245.29,109.806 245.642,109.422C245.658,109.15 245.686,108.866 245.726,108.57C245.766,108.274 245.818,107.974 245.882,107.67L247.322,101.718C247.242,101.686 247.11,101.662 246.926,101.646C246.742,101.63 246.578,101.622 246.434,101.622C245.522,101.622 244.698,101.798 243.962,102.15C243.226,102.502 242.598,102.97 242.078,103.554C241.558,104.138 241.158,104.818 240.878,105.594C240.598,106.37 240.458,107.182 240.458,108.03C240.458,108.366 240.49,108.706 240.554,109.05C240.618,109.394 240.734,109.698 240.902,109.962C241.07,110.226 241.294,110.442 241.574,110.61C241.854,110.778 242.218,110.862 242.666,110.862ZM315.674,110.862C316.346,110.862 316.922,110.718 317.402,110.43C317.882,110.142 318.298,109.806 318.65,109.422C318.666,109.15 318.694,108.866 318.734,108.57C318.774,108.274 318.826,107.974 318.89,107.67L320.33,101.718C320.25,101.686 320.118,101.662 319.934,101.646C319.75,101.63 319.586,101.622 319.442,101.622C318.53,101.622 317.706,101.798 316.97,102.15C316.234,102.502 315.606,102.97 315.086,103.554C314.566,104.138 314.166,104.818 313.886,105.594C313.606,106.37 313.466,107.182 313.466,108.03C313.466,108.366 313.498,108.706 313.562,109.05C313.626,109.394 313.742,109.698 313.91,109.962C314.078,110.226 314.302,110.442 314.582,110.61C314.862,110.778 315.226,110.862 315.674,110.862ZM334.37,110.862C335.042,110.862 335.614,110.722 336.086,110.442C336.558,110.162 336.97,109.838 337.322,109.47C337.338,109.214 337.366,108.938 337.406,108.642C337.446,108.346 337.506,108.022 337.586,107.67L339.026,101.67C338.882,101.638 338.722,101.618 338.546,101.61C338.37,101.602 338.202,101.598 338.042,101.598C337.13,101.598 336.306,101.774 335.57,102.126C334.834,102.478 334.206,102.95 333.686,103.542C333.166,104.134 332.766,104.818 332.486,105.594C332.206,106.37 332.066,107.182 332.066,108.03C332.066,108.398 332.106,108.75 332.186,109.086C332.266,109.422 332.394,109.722 332.57,109.986C332.746,110.25 332.982,110.462 333.278,110.622C333.574,110.782 333.938,110.862 334.37,110.862ZM378.338,110.694C378.498,110.726 378.67,110.746 378.854,110.754C379.038,110.762 379.218,110.766 379.394,110.766C380.306,110.766 381.122,110.59 381.842,110.238C382.562,109.886 383.174,109.41 383.678,108.81C384.182,108.21 384.57,107.522 384.842,106.746C385.114,105.97 385.25,105.158 385.25,104.31C385.25,103.958 385.21,103.614 385.13,103.278C385.05,102.942 384.902,102.646 384.686,102.39C384.47,102.134 384.178,101.93 383.81,101.778C383.442,101.626 382.97,101.55 382.394,101.55C381.994,101.55 381.626,101.586 381.29,101.658C380.954,101.73 380.674,101.798 380.45,101.862L378.338,110.694ZM370.754,106.302C370.626,105.006 370.478,103.718 370.31,102.438C370.142,101.158 369.946,99.838 369.722,98.478C369.162,99.294 368.466,100.346 367.634,101.634C366.802,102.922 365.858,104.478 364.802,106.302L370.754,106.302ZM439.442,105.894C440.37,105.862 441.218,105.802 441.986,105.714C442.754,105.626 443.418,105.474 443.978,105.258C444.538,105.042 444.974,104.75 445.286,104.382C445.598,104.014 445.754,103.534 445.754,102.942C445.754,102.798 445.726,102.646 445.67,102.486C445.614,102.326 445.518,102.178 445.382,102.042C445.246,101.906 445.058,101.794 444.818,101.706C444.578,101.618 444.282,101.574 443.93,101.574C443.37,101.574 442.846,101.694 442.358,101.934C441.87,102.174 441.434,102.49 441.05,102.882C440.666,103.274 440.338,103.73 440.066,104.25C439.794,104.77 439.586,105.318 439.442,105.894ZM345.506,105.894C346.434,105.862 347.282,105.802 348.05,105.714C348.818,105.626 349.482,105.474 350.042,105.258C350.602,105.042 351.038,104.75 351.35,104.382C351.662,104.014 351.818,103.534 351.818,102.942C351.818,102.798 351.79,102.646 351.734,102.486C351.678,102.326 351.582,102.178 351.446,102.042C351.31,101.906 351.122,101.794 350.882,101.706C350.642,101.618 350.346,101.574 349.994,101.574C349.434,101.574 348.91,101.694 348.422,101.934C347.934,102.174 347.498,102.49 347.114,102.882C346.73,103.274 346.402,103.73 346.13,104.25C345.858,104.77 345.65,105.318 345.506,105.894ZM216.794,105.894C217.722,105.862 218.57,105.802 219.338,105.714C220.106,105.626 220.77,105.474 221.33,105.258C221.89,105.042 222.326,104.75 222.638,104.382C222.95,104.014 223.106,103.534 223.106,102.942C223.106,102.798 223.078,102.646 223.022,102.486C222.966,102.326 222.87,102.178 222.734,102.042C222.598,101.906 222.41,101.794 222.17,101.706C221.93,101.618 221.634,101.574 221.282,101.574C220.722,101.574 220.198,101.694 219.71,101.934C219.222,102.174 218.786,102.49 218.402,102.882C218.018,103.274 217.69,103.73 217.418,104.25C217.146,104.77 216.938,105.318 216.794,105.894ZM400.658,105.894C401.586,105.862 402.434,105.802 403.202,105.714C403.97,105.626 404.634,105.474 405.194,105.258C405.754,105.042 406.19,104.75 406.502,104.382C406.814,104.014 406.97,103.534 406.97,102.942C406.97,102.798 406.942,102.646 406.886,102.486C406.83,102.326 406.734,102.178 406.598,102.042C406.462,101.906 406.274,101.794 406.034,101.706C405.794,101.618 405.498,101.574 405.146,101.574C404.586,101.574 404.062,101.694 403.574,101.934C403.086,102.174 402.65,102.49 402.266,102.882C401.882,103.274 401.554,103.73 401.282,104.25C401.01,104.77 400.802,105.318 400.658,105.894Z" style="fill:white;fill-rule:nonzero;"/>
        <g>
            <path d="M61.028,0.157C26.748,0.157 -1.082,27.988 -1.082,62.268C-1.082,96.548 26.748,124.379 61.028,124.379C95.308,124.379 123.139,96.548 123.139,62.268C123.139,27.988 95.308,0.157 61.028,0.157ZM61.028,11.157C89.237,11.157 112.139,34.059 112.139,62.268C112.139,90.477 89.237,113.379 61.028,113.379C32.819,113.379 9.918,90.477 9.918,62.268C9.918,34.059 32.819,11.157 61.028,11.157ZM88.844,55.626L88.844,74.616C88.844,82.925 82.099,89.67 73.79,89.67L53.672,89.67C45.363,89.67 38.618,82.925 38.618,74.616L38.618,55.723C40.443,56.54 42.299,57.368 44.118,58.179L44.118,74.616C44.118,79.889 48.399,84.17 53.672,84.17L73.79,84.17C79.063,84.17 83.344,79.889 83.344,74.616L83.344,58.064L88.844,55.626ZM61.073,32.566L21.831,44.482C21.831,44.482 20.421,45.206 21.925,46.126C23.343,46.994 60.407,63.423 60.407,63.423C60.407,63.423 63.114,64.993 67.223,63.197C71.332,61.401 105.669,46.162 105.669,46.162C105.669,46.162 107.294,44.985 105.408,44.424C103.522,43.863 67.495,32.455 67.495,32.455C67.495,32.455 63.276,31.407 61.073,32.566ZM61.541,38.034L35.93,46.249L61.15,58.146C61.15,58.146 63.098,59.027 65.606,58.12C68.114,57.212 91.623,46.555 91.623,46.555L66.478,37.993C66.478,37.993 63.552,37.182 61.541,38.034Z" style="fill:white;"/>
            <g transform="matrix(1,0,0,1,0.202812,-0.0825)">
                <path d="M65.737,43.315C65.737,43.315 54.895,44.69 38.332,50.698C38.332,50.698 34.865,52.293 34.714,55.459C34.679,56.187 34.603,58.114 34.693,61.357C34.769,64.108 35.126,67.996 34.893,70.976C34.096,81.151 32.674,86.782 20.771,88.351C20.771,88.351 23.599,89.09 26.669,88.805C26.669,88.805 24.026,90.425 22.334,90.441C22.334,90.441 37.652,92.807 38.433,79.481C39.214,66.156 38.43,58.242 38.43,58.242C38.43,58.242 38.005,54.89 41.276,53.695C44.817,52.401 53.704,49.713 63.591,48.18C63.591,48.18 68.36,47.589 69.226,45.743C69.888,44.331 68.197,42.746 65.737,43.315Z" style="fill:white;"/>
            </g>
        </g>
        <g transform="matrix(1,0,0,1,0.202812,-0.0825)">
            <path d="M65.737,43.315C65.737,43.315 54.895,44.69 38.332,50.698C38.332,50.698 34.865,52.293 34.714,55.459C34.679,56.187 34.603,58.114 34.693,61.357C34.769,64.108 35.126,67.996 34.893,70.976C34.096,81.151 32.674,86.782 20.771,88.351C20.771,88.351 23.599,89.09 26.669,88.805C26.669,88.805 24.026,90.425 22.334,90.441C22.334,90.441 37.652,92.807 38.433,79.481C39.214,66.156 38.43,58.242 38.43,58.242C38.43,58.242 38.005,54.89 41.276,53.695C44.817,52.401 53.704,49.713 63.591,48.18C63.591,48.18 68.36,47.589 69.226,45.743C69.888,44.331 68.197,42.746 65.737,43.315Z" style="fill:white;"/>
        </g>
        <g transform="matrix(1,0,0,1,0.304687,1.67344)">
            <path d="M209.837,75.209L209.837,44.349L209.889,43.959L209.837,43.57C209.608,39.436 205.138,36.145 199.671,36.145C194.4,36.145 190.056,39.204 189.563,43.132L189.557,43.179L189.557,44.739L189.557,44.74L189.557,84.205L173.837,84.205L173.837,44.349L173.889,43.959L173.837,43.57C173.608,39.436 169.138,36.145 163.671,36.145C158.4,36.145 154.056,39.204 153.563,43.132L153.557,43.179L153.557,44.739L153.557,44.74L153.557,84.205L138.837,84.205L138.837,42.349C138.909,38.22 140.82,34.418 144.005,31.387C148.533,27.008 155.656,24.196 163.659,24.196C170.745,24.196 177.141,26.401 181.657,29.948C186.173,26.402 192.571,24.196 199.659,24.196C207.085,24.196 213.754,26.617 218.294,30.468L218.347,30.513C221.749,33.373 223.956,37.033 224.392,41.062L224.392,84.205L217.667,84.205C211.523,83.61 210.143,77.997 209.837,75.209ZM249.873,41.261L231.354,41.261L231.354,83.908L249.873,83.908L249.873,41.261ZM249.998,32.754C249.998,27.651 245.855,23.509 240.752,23.509L231.139,23.509L231.139,38.685L249.998,38.685L249.998,32.754Z" style="fill:white;"/>
        </g>
        <path d="M386.614,69.344C386.638,69.506 386.65,69.671 386.648,69.836C386.598,75.369 382.654,86.09 361.266,86.249C339.879,86.408 335.494,73.979 335.491,69.723L335.491,69.717L335.475,69.717L335.475,26.15L350.266,26.15L350.266,65.363C350.662,68.648 353.092,74.769 360.91,74.827C370.644,74.898 371.669,68.49 371.823,64.159L371.823,34.082C371.823,29.83 375.299,26.377 379.581,26.377L386.614,26.377L386.614,69.344ZM443.518,41.9C443.126,38.588 440.248,36.027 436.766,36.027L432.159,36.027C428.446,36.027 425.189,37.964 423.382,40.863L408.49,40.863C411.398,31.612 420.178,24.883 430.546,24.883L439.944,24.883C450.095,24.883 458.336,32.977 458.336,42.946L458.336,64.634C458.336,76.411 448.601,85.972 436.61,85.972L423.752,85.972C414.764,85.972 407.468,78.806 407.468,69.979L407.468,63.859C408.066,59.696 410.856,52.971 421.875,49.987L424.135,49.427C439.845,46.194 443.583,46.806 443.522,41.939L443.518,41.9ZM405.153,15.923C405.153,11.575 401.623,8.044 397.274,8.044L389.306,8.044L389.306,85.926L405.153,85.926L405.153,15.923ZM318.333,41.732C317.942,38.416 315.064,35.851 311.581,35.851L306.974,35.851C303.261,35.851 300.005,37.79 298.197,40.694L283.305,40.694C286.213,31.43 294.993,24.691 305.361,24.691L314.759,24.691C324.91,24.691 333.152,32.796 333.152,42.78L333.152,64.498C333.152,76.29 323.417,85.864 311.426,85.864L298.567,85.864C289.58,85.864 282.283,78.689 282.283,69.85L282.283,63.722C282.882,59.553 285.672,52.818 296.69,49.83L298.951,49.269C314.661,46.032 318.398,46.645 318.338,41.771L318.333,41.732ZM443.369,55.009C440.847,55.938 435.805,57.653 430.865,58.745C427.001,59.599 422.175,61.334 421.875,66.154L421.875,67.444C421.875,71.276 425.043,74.387 428.945,74.387L431.605,74.387C438.228,74.387 443.605,69.106 443.605,62.602L443.605,54.922L443.369,55.009ZM318.184,54.859C315.663,55.79 310.621,57.507 305.68,58.6C301.816,59.455 296.991,61.193 296.69,66.02L296.69,67.311C296.69,71.148 299.858,74.264 303.76,74.264L306.421,74.264C313.044,74.264 318.421,68.976 318.421,62.462L318.421,54.772L318.184,54.859Z" style="fill:white;"/>
    </g>
</svg>
