<?xml version="1.0" encoding="utf-8"?>
<!-- Generator: Adobe Illustrator 24.2.0, SVG Export Plug-In . SVG Version: 6.00 Build 0)  -->
<svg version="1.1" id="Capa_1" xmlns="http://www.w3.org/2000/svg" xmlns:xlink="http://www.w3.org/1999/xlink" x="0px" y="0px"
	 viewBox="0 0 100 100" style="enable-background:new 0 0 100 100;" xml:space="preserve">
<style type="text/css">
	.st0{display:none;}
	.st1{display:inline;}
	.st2{fill-rule:evenodd;clip-rule:evenodd;fill:#FFFFFF;}
	.st3{fill:#2D3E50;}
	.st4{fill:#BEC4C8;}
	.st5{fill:#96A5A6;}
	.st6{fill:#ECF0F1;}
	.st7{fill:#364A5E;}
</style>
<g class="st0">
	<g class="st1">
		<path class="st2" d="M50,5C25.16,5,5,25.16,5,50s20.16,45,45,45s45-20.16,45-45S74.84,5,50,5z"/>
		<path class="st2" d="M50,8.63c22.83,0,41.37,18.54,41.37,41.37S72.83,91.37,50,91.37S8.63,72.83,8.63,50S27.17,8.63,50,8.63z"/>
	</g>
	<g transform="matrix(.26458 0 0 .26458 -193.59 -243.79)" class="st1">
		<path class="st3" d="M882.75,1140.36c-20.08,9.67-40.19,19.33-60.26,29.88c-7.87,4.39-10.8,14.06-10.05,22.85
			c0.37,5.27-1.59,12.3,3.88,15.82c5.19,2.64,11.28,0.88,16.92,1.76h182.24c6.76-0.88,8.55-7.91,7.89-13.18
			c0.12-8.79,0.6-17.58-5.78-23.73c-5.19-5.27-12.61-7.91-18.96-11.43c-15.19-7.03-30.38-14.94-45.57-21.97L882.75,1140.36
			L882.75,1140.36L882.75,1140.36z"/>
		<path class="st4" d="M882.75,1140.36h70.31l-17.58,70.31h-35.16L882.75,1140.36L882.75,1140.36z"/>
		<path class="st3" d="M900.33,1157.93v26.37l8.79,8.79l-8.79,17.58h35.16l-8.79-17.58l8.79-8.79v-26.37H900.33z"/>
		<rect x="891.56" y="1114" class="st5" width="52.73" height="43.94"/>
		<path class="st6" d="M882.75,1140.36l8.79-8.79l26.37,26.37l26.37-26.37l8.79,8.79l-17.58,43.94l-17.58-26.37l-17.58,26.37
			L882.75,1140.36z"/>
		<path class="st4" d="M917.91,999.74c-26.04,0-47.62,23.64-51.91,54.66c-1-0.27-2.11-0.57-3.02-0.28
			c-4.62,1.5-5.75,10.27-2.75,19.5c1.76,5.42,4.7,9.68,7.69,12.08c6.82,26.52,26.5,45.87,49.99,45.87
			c23.48,0,43.16-19.34,49.99-45.87c2.99-2.4,5.92-6.67,7.68-12.08c3.01-9.23,1.87-18-2.74-19.5c-0.91-0.3-2.02,0-3.02,0.28
			C965.52,1023.38,943.95,999.74,917.91,999.74z"/>
		<path class="st7" d="M917.91,999.74c-17.95-0.88-34.62,11.43-43.77,28.12c-4.66,7.91-7.77,17.58-9.14,26.37
			c2.94-0.88,5.27,0.88,7.94-2.64c5.53-5.27,7.98-9.67,9.99-16.7c3.43-7.91,10.93-20.21,17.58-17.58c6.09,1.76,8.79,5.27,17.58,5.27
			c8.79,0,11.49-3.52,17.58-5.27c6.65-2.64,14.15,9.67,17.58,17.58c2,7.03,4.11,11.43,9.64,16.7c2.66,3.52,4.99,1.76,7.94,2.64
			c-1.37-8.79-4.48-18.46-9.14-26.37C952.53,1011.17,935.86,998.86,917.91,999.74L917.91,999.74z"/>
	</g>
</g>
<g>
	<g>
		<path class="st2" d="M50,5C25.16,5,5,25.16,5,50s20.16,45,45,45s45-20.16,45-45S74.84,5,50,5z"/>
		<path class="st2" d="M50,8.63c22.83,0,41.37,18.54,41.37,41.37S72.83,91.37,50,91.37S8.63,72.83,8.63,50S27.17,8.63,50,8.63z"/>
	</g>
	<g transform="matrix(.26458 0 0 .26458 -175.07 -502.35)">
		<path class="st3" d="M798.62,2032.8c-1.86,0-3.75,0.11-5.5,0.55c-1.03,0.26-2.04,0.7-3.03,1.1c-0.38,0.16-0.73,0.37-1.1,0.55
			c-0.16,0.07-0.12,0.2-0.27,0.27c-0.93,0.46-1.87,0.8-2.75,1.38c-0.12,0.08-0.43,0.19-0.55,0.28c-0.26,0.18-0.3,0.36-0.55,0.55
			c-0.72,0.52-1.53,1.07-2.2,1.65c-0.62,0.55-1.07,1.31-1.65,1.92c-1.95,2-3.85,4.12-5.23,6.6c-2.36,4.14-3.93,8.67-4.68,13.48
			c-0.36-0.08-0.79-0.1-1.1,0c-2.41,0.78-2.94,5.36-1.37,10.18c0.92,2.83,2.29,5.07,3.85,6.33c2.09,8.14,6.6,15,12.38,19.25v4.67
			l-4.68,4.4l-9.08,4.68c-7.41,3.67-14.88,7.33-22.28,11c-4.1,2.47-5.62,7.27-5.23,11.83c0.19,2.86-0.92,6.61,1.93,8.52
			c2.71,1.39,6.14,0.6,9.08,0.83h15.95c1.6-2.09,3.6-4.03,6.05-5.5l0.27-0.27h0.28c12.42-6.1,24.68-12.32,37.13-18.43l14.3-6.87
			c-0.81-0.4-1.67-0.7-2.48-1.1l-9.08-4.68l-4.68-4.4v-4.67c3.66-2.68,6.75-6.57,9.08-11c-3.14-5.07-5.55-10.9-7.15-17.05
			c-2.66-2.73-5.15-5.76-6.6-10.18c-1.5-4.55-1.92-9.25-1.38-13.2c0.49-3.5,2.17-6.81,5.5-8.53c-0.98-0.64-2.26-1.14-3.3-1.65
			c-0.53-0.26-0.84-0.61-1.38-0.82c-0.38-0.16-0.71-0.14-1.1-0.28c-1.17-0.4-2.36-0.89-3.58-1.1c-0.09-0.01-0.18,0.02-0.28,0
			C801.06,2032.9,799.79,2032.79,798.62,2032.8L798.62,2032.8z"/>
		<path class="st7" d="M862.3,1994.95c-3.12,0-6.19,0-9.14,0.88c-1.72,0-3.39,0.88-5.04,1.76c-0.64,0-1.29,0-1.93,0.88h-0.72
			c-1.56,0.88-3.09,1.76-4.57,2.64h-0.72c-0.43,0.88-0.77,0.88-1.2,1.76c-1.21,0.88-2.47,0.88-3.61,2.64
			c-1.03,0.88-1.92,1.76-2.89,2.64c-3.27,3.52-6.1,7.04-8.41,11.44c-3.97,6.16-6.92,14.08-8.17,22h-1.68
			c-4.04,1.76-5.03,8.8-2.4,16.72c1.54,5.28,4.11,8.8,6.73,10.56c3.52,14.08,10.97,25.52,20.67,32.57v7.92l-7.69,7.04l-15.38,7.92
			c-12.44,6.16-24.83,12.32-37.26,18.48c-6.89,3.52-9.55,12.32-8.89,19.36c0.32,5.28-1.42,11.44,3.36,14.08
			c4.55,2.64,9.97,0.88,14.91,0.88h104.81c18.21,0,36.37,0.88,54.58,0c5.91,0,7.54-6.16,6.97-11.44c0.11-7.04,0.53-14.96-5.05-20.24
			c-4.55-4.4-11.03-6.16-16.58-9.68c-8.16-3.52-16.37-7.92-24.52-11.44l-15.39-7.92l-7.69-7.04v-7.92
			c9.71-7.04,17.16-18.48,20.68-32.57c2.62-1.76,5.19-5.28,6.73-10.56c2.63-7.92,1.64-14.96-2.4-16.72h-1.68
			c-1.25-7.92-4.21-15.84-8.18-22c-2.31-4.4-5.14-7.92-8.41-11.44c-0.97-0.88-1.85-1.76-2.89-2.64h-0.24
			c-3.01-2.64-6.36-5.28-9.86-7.04c-0.88,0-1.73-0.88-2.64-0.88c-0.64,0-1.27-0.88-1.93-0.88c-1.96-0.88-3.96-0.88-6.01-1.76h-0.47
			L862.3,1994.95L862.3,1994.95z"/>
	</g>
</g>
</svg>
