<?xml version="1.0" encoding="utf-8"?>
<!-- Generator: Adobe Illustrator 24.2.0, SVG Export Plug-In . SVG Version: 6.00 Build 0)  -->
<svg version="1.1" id="Capa_1" xmlns="http://www.w3.org/2000/svg" xmlns:xlink="http://www.w3.org/1999/xlink" x="0px" y="0px"
	 viewBox="0 0 100 100" style="enable-background:new 0 0 100 100;" xml:space="preserve">
<style type="text/css">
	.st0{fill-rule:evenodd;clip-rule:evenodd;fill:#FFFFFF;}
	.st1{fill:#2D3E50;}
	.st2{fill:#BEC4C8;}
	.st3{fill:#96A5A6;}
	.st4{fill:#ECF0F1;}
	.st5{fill:#364A5E;}
</style>
<g>
	<g>
		<path class="st0" d="M50,5C25.16,5,5,25.16,5,50s20.16,45,45,45s45-20.16,45-45S74.84,5,50,5z"/>
		<path class="st0" d="M50,8.63c22.83,0,41.37,18.54,41.37,41.37S72.83,91.37,50,91.37S8.63,72.83,8.63,50S27.17,8.63,50,8.63z"/>
	</g>
	<g transform="matrix(.26458 0 0 .26458 -193.59 -243.79)">
		<path class="st1" d="M882.75,1140.36c-20.08,9.67-40.19,19.33-60.26,29.88c-7.87,4.39-10.8,14.06-10.05,22.85
			c0.37,5.27-1.59,12.3,3.88,15.82c5.19,2.64,11.28,0.88,16.92,1.76h182.24c6.76-0.88,8.55-7.91,7.89-13.18
			c0.12-8.79,0.6-17.58-5.78-23.73c-5.19-5.27-12.61-7.91-18.96-11.43c-15.19-7.03-30.38-14.94-45.57-21.97L882.75,1140.36
			L882.75,1140.36L882.75,1140.36z"/>
		<path class="st2" d="M882.75,1140.36h70.31l-17.58,70.31h-35.16L882.75,1140.36L882.75,1140.36z"/>
		<path class="st1" d="M900.33,1157.93v26.37l8.79,8.79l-8.79,17.58h35.16l-8.79-17.58l8.79-8.79v-26.37H900.33z"/>
		<rect x="891.56" y="1114" class="st3" width="52.73" height="43.94"/>
		<path class="st4" d="M882.75,1140.36l8.79-8.79l26.37,26.37l26.37-26.37l8.79,8.79l-17.58,43.94l-17.58-26.37l-17.58,26.37
			L882.75,1140.36z"/>
		<path class="st2" d="M917.91,999.74c-26.04,0-47.62,23.64-51.91,54.66c-1-0.27-2.11-0.57-3.02-0.28
			c-4.62,1.5-5.75,10.27-2.75,19.5c1.76,5.42,4.7,9.68,7.69,12.08c6.82,26.52,26.5,45.87,49.99,45.87
			c23.48,0,43.16-19.34,49.99-45.87c2.99-2.4,5.92-6.67,7.68-12.08c3.01-9.23,1.87-18-2.74-19.5c-0.91-0.3-2.02,0-3.02,0.28
			C965.52,1023.38,943.95,999.74,917.91,999.74z"/>
		<path class="st5" d="M917.91,999.74c-17.95-0.88-34.62,11.43-43.77,28.12c-4.66,7.91-7.77,17.58-9.14,26.37
			c2.94-0.88,5.27,0.88,7.94-2.64c5.53-5.27,7.98-9.67,9.99-16.7c3.43-7.91,10.93-20.21,17.58-17.58c6.09,1.76,8.79,5.27,17.58,5.27
			c8.79,0,11.49-3.52,17.58-5.27c6.65-2.64,14.15,9.67,17.58,17.58c2,7.03,4.11,11.43,9.64,16.7c2.66,3.52,4.99,1.76,7.94,2.64
			c-1.37-8.79-4.48-18.46-9.14-26.37C952.53,1011.17,935.86,998.86,917.91,999.74L917.91,999.74z"/>
	</g>
</g>
</svg>
